<?xml version="1.0" standalone="no"?>
<!DOCTYPE svg PUBLIC "-//W3C//DTD SVG 20010904//EN"
 "http://www.w3.org/TR/2001/REC-SVG-20010904/DTD/svg10.dtd">
<svg version="1.0" xmlns="http://www.w3.org/2000/svg"
 width="4330.000000pt" height="3464.000000pt" viewBox="0 0 4330.000000 3464.000000"
 preserveAspectRatio="xMidYMid meet">

<g transform="translate(0.000000,3464.000000) scale(0.100000,-0.100000)"
fill="#ffffff" stroke="none">
<path d="M30343 30635 c-285 -54 -566 -184 -932 -428 -619 -413 -1331 -1092
-2042 -1947 -1149 -1381 -2511 -3035 -3105 -3770 -1823 -2256 -3226 -4182
-4495 -6172 l-94 -147 -254 -222 c-233 -204 -261 -232 -343 -345 -50 -67 -89
-126 -87 -131 2 -4 96 -73 209 -152 595 -418 1206 -897 1750 -1371 85 -74 163
-141 172 -148 14 -11 29 3 118 110 96 116 110 139 254 420 144 283 156 302
227 375 303 314 879 939 1270 1378 1353 1519 2571 3027 4210 5216 455 608 549
735 966 1299 148 201 546 739 883 1195 338 457 664 900 725 985 1104 1534
1589 2664 1421 3312 -67 259 -242 456 -471 528 -89 28 -276 36 -382 15z"/>
<path d="M18741 17145 c-22 -30 -41 -58 -41 -62 0 -4 31 -28 67 -53 522 -351
1288 -946 1872 -1454 l184 -160 49 55 c26 29 48 57 48 60 0 12 -337 304 -615
533 -254 210 -491 396 -781 613 -321 240 -718 523 -734 523 -4 0 -26 -25 -49
-55z"/>
<path d="M18511 16831 c-28 -38 -51 -71 -51 -73 0 -3 35 -30 78 -59 603 -416
1355 -1001 1889 -1472 73 -65 136 -117 140 -117 8 1 89 98 106 126 15 26 -661
596 -1188 1000 -291 224 -898 663 -917 664 -3 0 -29 -31 -57 -69z"/>
<path d="M17550 15533 c-459 -620 -984 -1328 -1165 -1573 l-331 -445 -116 -6
c-329 -18 -492 -109 -558 -311 -19 -58 -26 -66 -69 -90 -58 -33 -137 -115
-158 -166 -56 -132 -58 -266 -7 -507 46 -222 59 -305 51 -337 -15 -57 -171
-238 -317 -366 -179 -157 -463 -319 -745 -425 -66 -25 -278 -95 -472 -156
-572 -180 -734 -251 -949 -417 -249 -192 -400 -479 -459 -870 -8 -55 -19 -202
-25 -329 -17 -391 -50 -695 -121 -1125 -96 -585 -253 -1295 -463 -2094 -42
-159 -75 -290 -73 -292 1 -1 38 43 82 99 43 56 143 183 220 282 78 99 523 668
990 1265 466 597 881 1127 922 1178 l74 92 -26 38 c-79 116 -115 309 -81 442
53 212 217 385 412 435 208 53 409 -1 559 -149 233 -230 234 -590 1 -820 -115
-114 -242 -166 -406 -166 -48 0 -112 7 -145 16 -33 9 -68 17 -77 18 -12 1
-388 -472 -1156 -1454 -627 -800 -1138 -1456 -1137 -1458 2 -2 97 48 212 111
1302 714 2256 1145 3023 1366 295 85 467 158 636 270 221 147 375 341 467 591
66 178 99 374 122 725 27 423 45 647 61 765 30 231 104 499 188 683 78 173
260 442 314 467 35 16 173 30 297 30 194 0 374 35 471 91 90 51 172 161 190
254 4 24 17 37 53 58 147 82 219 235 208 438 -3 53 -15 142 -27 198 -11 56
-18 107 -14 113 4 6 423 515 933 1132 1517 1838 1551 1879 1551 1887 0 21
-662 577 -1030 864 -383 299 -1038 775 -1067 775 -4 0 -384 -507 -843 -1127z"/>
<path d="M24110 6063 c-41 -1 -241 -7 -445 -13 -981 -28 -2272 -123 -3075
-226 -63 -8 -185 -24 -270 -35 -980 -125 -1868 -296 -3050 -584 -1749 -427
-2937 -642 -4225 -765 -60 -5 -262 -15 -448 -20 -666 -20 -1154 19 -1577 125
-271 68 -428 144 -556 270 -146 144 -177 296 -94 472 121 260 583 455 1113
470 159 5 177 7 177 23 0 9 -11 22 -24 28 -64 29 -157 36 -456 36 -299 0 -307
-1 -402 -27 -455 -124 -708 -385 -708 -732 0 -98 23 -184 77 -295 40 -82 60
-109 147 -195 114 -113 192 -169 351 -248 132 -66 159 -77 298 -128 293 -106
658 -172 1162 -209 337 -25 1014 -23 1390 5 33 3 130 9 215 15 711 49 1608
180 2540 369 367 74 545 113 1265 276 1618 366 3049 574 4655 675 621 39 1977
18 2860 -45 41 -3 104 -8 140 -10 36 -3 97 -7 135 -10 39 -3 138 -10 220 -15
178 -12 1079 -86 1215 -100 108 -10 149 -14 380 -35 91 -8 361 -33 600 -55
1004 -93 1242 -114 1770 -155 1239 -96 2102 -131 2610 -105 729 37 1130 101
1130 179 0 113 -615 251 -2130 476 -146 22 -325 46 -850 115 -80 10 -399 53
-710 95 -311 42 -630 85 -710 95 -80 11 -329 44 -555 74 -225 30 -536 71 -690
91 -154 20 -345 44 -425 55 -154 20 -210 24 -525 40 -422 21 -938 30 -1680 28
-423 -1 -804 -3 -845 -5z"/>
</g>
</svg>
